<svg width="113" height="114" viewBox="0 0 113 114" fill="none" xmlns="http://www.w3.org/2000/svg">
<g clip-path="url(#clip0)">
<mask id="mask0" mask-type="alpha" maskUnits="userSpaceOnUse" x="32" y="0" width="116" height="142">
<rect x="32" width="116" height="142" rx="8" fill="white"/>
</mask>
<g mask="url(#mask0)">
<path d="M94.1667 113.75V104.25C94.1667 99.2109 92.1825 94.3782 88.6505 90.815C85.1186 87.2518 80.3283 85.25 75.3334 85.25H37.6667C32.6718 85.25 27.8815 87.2518 24.3495 90.815C20.8176 94.3782 18.8334 99.2109 18.8334 104.25V113.75" stroke="black" stroke-opacity="0.1" stroke-width="5" stroke-linecap="round" stroke-linejoin="round"/>
<path d="M56.5 66.25C66.9013 66.25 75.3333 57.7434 75.3333 47.25C75.3333 36.7566 66.9013 28.25 56.5 28.25C46.0986 28.25 37.6666 36.7566 37.6666 47.25C37.6666 57.7434 46.0986 66.25 56.5 66.25Z" stroke="black" stroke-opacity="0.1" stroke-width="5" stroke-linecap="round" stroke-linejoin="round"/>
</g>
</g>
<defs>
<clipPath id="clip0">
<rect width="113" height="114" fill="white"/>
</clipPath>
</defs>
</svg>
