<svg width="224" height="40" viewBox="0 0 224 40" fill="none" xmlns="http://www.w3.org/2000/svg">
<path d="M20 0L25.8779 11.9098L39.0211 13.8197L29.5106 23.0902L31.7557 36.1803L20 30L8.2443 36.1803L10.4894 23.0902L0.97887 13.8197L14.1221 11.9098L20 0Z" fill="#FBC02D"/>
<path d="M66 0L71.8779 11.9098L85.0211 13.8197L75.5106 23.0902L77.7557 36.1803L66 30L54.2443 36.1803L56.4894 23.0902L46.9789 13.8197L60.1221 11.9098L66 0Z" fill="#FBC02D"/>
<path d="M112 0L117.878 11.9098L131.021 13.8197L121.511 23.0902L123.756 36.1803L112 30L100.244 36.1803L102.489 23.0902L92.9789 13.8197L106.122 11.9098L112 0Z" fill="#E0E0E0"/>
<path fill-rule="evenodd" clip-rule="evenodd" d="M112 0L106.122 11.9098L92.9785 13.8197L102.489 23.0902L100.244 36.1803L112 30V0ZM131 13.8166V13.8403L131.021 13.8197L131 13.8166ZM123.724 36H123.412L123.755 36.1803L123.724 36Z" fill="#FBC02D"/>
<path d="M158 0L163.878 11.9098L177.021 13.8197L167.511 23.0902L169.756 36.1803L158 30L146.244 36.1803L148.489 23.0902L138.979 13.8197L152.122 11.9098L158 0Z" fill="#E0E0E0"/>
<path d="M204 0L209.878 11.9098L223.021 13.8197L213.511 23.0902L215.756 36.1803L204 30L192.244 36.1803L194.489 23.0902L184.979 13.8197L198.122 11.9098L204 0Z" fill="#E0E0E0"/>
</svg>
