<svg width="120" height="95" viewBox="0 0 120 95" fill="none" xmlns="http://www.w3.org/2000/svg">
<path d="M7.04622 32.2308L45.3728 72.994L26.917 32.2308H7.04622ZM57 79.5529L78.4703 32.2308H35.5297L57 79.5529ZM27.1016 24.3846L39.6515 0.846154H23.5334L5.81583 24.3846H27.1016ZM68.6272 72.994L106.954 32.2308H87.083L68.6272 72.994ZM36.0219 24.3846H77.9781L65.4282 0.846154H48.5718L36.0219 24.3846ZM86.8984 24.3846H108.184L90.4666 0.846154H74.3485L86.8984 24.3846ZM95.5727 -5.40625L119.196 25.9784C119.77 26.7139 120.037 27.5619 119.996 28.5222C119.955 29.4826 119.606 30.3101 118.95 31.0048L59.8914 93.774C59.1532 94.5913 58.1894 95 57 95C55.8106 95 54.8468 94.5913 54.1086 93.774L-4.95007 31.0048C-5.60628 30.3101 -5.95489 29.4826 -5.9959 28.5222C-6.03691 27.5619 -5.77033 26.7139 -5.19615 25.9784L18.4273 -5.40625C19.1656 -6.46875 20.2114 -7 21.5648 -7H92.4352C93.7886 -7 94.8344 -6.46875 95.5727 -5.40625Z" fill="white" fill-opacity="0.2"/>
</svg>
