<svg width="99" height="95" viewBox="0 0 99 95" fill="none" xmlns="http://www.w3.org/2000/svg">
<path d="M94.7401 30.4476L63.4985 25.9072L49.5327 -2.40591C49.1513 -3.18111 48.5237 -3.80865 47.7485 -4.19009C45.8044 -5.14986 43.4419 -4.35005 42.4698 -2.40591L28.504 25.9072L-2.73761 30.4476C-3.59894 30.5707 -4.38644 30.9767 -4.98937 31.5919C-5.71828 32.3411 -6.11994 33.3491 -6.1061 34.3942C-6.09226 35.4394 -5.66404 36.4363 -4.91554 37.166L17.6882 59.2037L12.3479 90.3222C12.2227 91.0461 12.3028 91.7906 12.5792 92.4713C12.8555 93.1519 13.3171 93.7416 13.9115 94.1733C14.5059 94.605 15.2094 94.8615 15.9421 94.9138C16.6749 94.966 17.4077 94.8119 18.0573 94.4689L46.0013 79.7771L73.9452 94.4689C74.7081 94.875 75.594 95.0103 76.4431 94.8626C78.5841 94.4935 80.0237 92.4632 79.6546 90.3222L74.3143 59.2037L96.9181 37.166C97.5333 36.563 97.9393 35.7755 98.0624 34.9142C98.3946 32.7609 96.8934 30.7675 94.7401 30.4476ZM64.8028 56.1029L69.2448 81.9796L46.0013 69.7734L22.7577 81.9919L27.1997 56.1152L8.39813 37.7812L34.3856 34.0037L46.0013 10.4648L57.6169 34.0037L83.6044 37.7812L64.8028 56.1029Z" fill="white" fill-opacity="0.2"/>
</svg>
