<svg width="56" height="56" viewBox="0 0 56 56" fill="none" xmlns="http://www.w3.org/2000/svg">
<path fill-rule="evenodd" clip-rule="evenodd" d="M28 54C42.3594 54 54 42.3594 54 28C54 13.6406 42.3594 2 28 2C13.6406 2 2 13.6406 2 28C2 42.3594 13.6406 54 28 54ZM28 46.909C38.4432 46.909 46.9091 38.4431 46.9091 27.9999C46.9091 17.5567 38.4432 9.09084 28 9.09084C17.5568 9.09084 9.0909 17.5567 9.0909 27.9999C9.0909 38.4431 17.5568 46.909 28 46.909Z" fill="#F3C33F"/>
<path d="M43.887 12.113C45.2665 10.7335 45.2789 8.47447 43.7253 7.29456C41.9541 5.94935 40.0136 4.834 37.9498 3.97913C34.7953 2.67251 31.4144 2 28 2C24.5856 2 21.2047 2.67251 18.0502 3.97913C14.8958 5.28576 12.0295 7.2009 9.61522 9.61523C7.2009 12.0296 5.28575 14.8958 3.97913 18.0502C2.67251 21.2047 2 24.5856 2 28C2 31.4144 2.67251 34.7953 3.97913 37.9498C4.834 40.0136 5.94935 41.9541 7.29456 43.7253C8.47447 45.2789 10.7335 45.2665 12.113 43.887V43.887C13.4924 42.5076 13.4594 40.2851 12.3597 38.6737C11.6273 37.6006 11.0056 36.4523 10.506 35.2462C9.55444 32.9489 9.06467 30.4866 9.06466 28C9.06466 25.5134 9.55444 23.0511 10.506 20.7538C11.4576 18.4564 12.8524 16.369 14.6107 14.6107C16.369 12.8524 18.4564 11.4576 20.7538 10.506C23.0511 9.55444 25.5134 9.06467 28 9.06466C30.4866 9.06466 32.9489 9.55444 35.2462 10.506C36.4523 11.0056 37.6006 11.6273 38.6737 12.3597C40.2851 13.4594 42.5076 13.4924 43.887 12.113V12.113Z" fill="#F6D579"/>
<path d="M19.7917 29.2181H17.1242L18.4793 24.9898C18.5029 25.0796 18.9404 26.4891 19.7917 29.2181Z" fill="#E6AD0F"/>
<path d="M27.624 32.0487H26.2477V24.7415H27.4183C28.7047 24.7415 29.6672 25.0323 30.3057 25.6141C30.9442 26.1911 31.2634 27.1181 31.2634 28.3951C31.2634 29.587 30.9537 30.4951 30.3341 31.1194C29.7145 31.739 28.8111 32.0487 27.624 32.0487Z" fill="#E6AD0F"/>
<path fill-rule="evenodd" clip-rule="evenodd" d="M28 47C38.4934 47 47 38.4934 47 28C47 17.5066 38.4934 9 28 9C17.5066 9 9 17.5066 9 28C9 38.4934 17.5066 47 28 47ZM17.4222 23.1878L13.5983 33.5882H15.606L16.6418 30.6511H20.2812L21.3099 33.5882H23.2822L19.5151 23.1878H17.4222ZM24.3251 23.1949V33.5882H27.5105C29.303 33.5882 30.7053 33.1366 31.7175 32.2332C32.7296 31.3251 33.2357 30.0316 33.2357 28.3525C33.2357 27.487 33.0962 26.7255 32.8171 26.0681C32.5428 25.406 32.1455 24.8668 31.6253 24.4506C31.1097 24.0297 30.4925 23.7151 29.7736 23.507C29.0547 23.2989 28.2412 23.1949 27.3331 23.1949H24.3251ZM34.6049 32.8646C35.5981 33.4416 36.7214 33.7301 37.9748 33.7301C39.1619 33.7301 40.1055 33.4653 40.8055 32.9355C41.5054 32.4011 41.8554 31.6396 41.8554 30.6511C41.8554 29.8235 41.6497 29.1779 41.2382 28.7144C40.8315 28.2509 40.1528 27.863 39.2021 27.5509C39.0697 27.5083 38.7812 27.4161 38.3366 27.2742C37.892 27.1323 37.613 27.0401 37.4995 26.9975C36.9272 26.8225 36.641 26.4465 36.641 25.8695C36.6599 25.4013 36.8137 25.0678 37.1022 24.8692C37.3954 24.6658 37.8282 24.5641 38.4004 24.5641C39.195 24.5641 40.0558 24.7722 40.9828 25.1884L41.5646 23.7837C40.6565 23.2682 39.5758 23.0104 38.3224 23.0104C37.2157 23.0104 36.3265 23.2658 35.6549 23.7766C34.988 24.2874 34.6546 25.0134 34.6546 25.9546C34.6546 27.2978 35.3522 28.2154 36.7474 28.7073C36.8562 28.7498 37.0336 28.8113 37.2795 28.8917C37.5302 28.9674 37.7974 29.0478 38.0812 29.1329C38.365 29.2133 38.5376 29.263 38.5991 29.2819C39.4693 29.5326 39.9045 29.9843 39.9045 30.6369C39.9045 31.1288 39.7484 31.5072 39.4362 31.7721C39.1241 32.0322 38.6629 32.1623 38.0528 32.1623C37.5562 32.1623 37.0454 32.0866 36.5204 31.9352C36.0002 31.7839 35.5177 31.5852 35.0732 31.3393L34.6049 32.8646Z" fill="#E6AD0F"/>
</svg>
