<svg width="56" height="56" viewBox="0 0 56 56" fill="none" xmlns="http://www.w3.org/2000/svg">
<path fill-rule="evenodd" clip-rule="evenodd" d="M28 54C42.3594 54 54 42.3594 54 28C54 13.6406 42.3594 2 28 2C13.6406 2 2 13.6406 2 28C2 42.3594 13.6406 54 28 54ZM28 46.9091C38.4432 46.9091 46.9091 38.4432 46.9091 28C46.9091 17.5568 38.4432 9.09091 28 9.09091C17.5568 9.09091 9.09091 17.5568 9.09091 28C9.09091 38.4432 17.5568 46.9091 28 46.9091Z" fill="#F3C33F"/>
<path d="M43.9108 12.0892C45.2772 10.7228 45.2893 8.48559 43.7521 7.31493C41.9736 5.96061 40.024 4.83831 37.9498 3.97913C34.7953 2.67251 31.4144 2 28 2C24.5856 2 21.2047 2.67251 18.0502 3.97913C14.8958 5.28576 12.0295 7.2009 9.61522 9.61523C7.2009 12.0296 5.28575 14.8958 3.97913 18.0502C2.67251 21.2047 2 24.5856 2 28C2 31.4144 2.67251 34.7953 3.97913 37.9498C4.83832 40.024 5.96061 41.9736 7.31493 43.7521C8.4856 45.2894 10.7228 45.2772 12.0892 43.9108V43.9108C13.4555 42.5445 13.4233 40.3432 12.3302 38.7498C11.5839 37.6619 10.9511 36.4967 10.4439 35.272C9.48888 32.9665 8.99736 30.4955 8.99736 28C8.99736 25.5045 9.48888 23.0335 10.4438 20.728C11.3988 18.4225 12.7985 16.3277 14.5631 14.5631C16.3277 12.7985 18.4225 11.3988 20.728 10.4439C23.0335 9.48888 25.5045 8.99736 28 8.99736C30.4955 8.99736 32.9665 9.48888 35.272 10.4438C36.4967 10.9511 37.6619 11.5839 38.7498 12.3302C40.3432 13.4233 42.5445 13.4555 43.9108 12.0892V12.0892Z" fill="#F6D579"/>
<path d="M20.0313 28.1397C19.7428 28.2154 19.4023 28.2532 19.0097 28.2532C18.1584 28.2532 17.7043 28.2485 17.6476 28.239V24.5996H19.2296C19.9012 24.5996 20.4215 24.7486 20.7904 25.0465C21.1593 25.3445 21.3438 25.7796 21.3438 26.3519C21.3438 26.5553 21.3272 26.7397 21.2941 26.9053C21.2657 27.0661 21.2019 27.234 21.1026 27.409C21.008 27.584 20.8779 27.7306 20.7124 27.8488C20.5516 27.9671 20.3245 28.064 20.0313 28.1397Z" fill="#E6AD0F"/>
<path d="M36.1215 32.0487H34.7452V24.7415H35.9158C37.2022 24.7415 38.1647 25.0323 38.8032 25.6141C39.4417 26.1911 39.7609 27.1181 39.7609 28.3951C39.7609 29.587 39.4512 30.4951 38.8316 31.1194C38.212 31.739 37.3086 32.0487 36.1215 32.0487Z" fill="#E6AD0F"/>
<path fill-rule="evenodd" clip-rule="evenodd" d="M28 47C38.4934 47 47 38.4934 47 28C47 17.5066 38.4934 9 28 9C17.5066 9 9 17.5066 9 28C9 38.4934 17.5066 47 28 47ZM15.7534 23.1665V33.5882H17.6476V29.587C18.0496 29.6248 18.5722 29.6437 19.2154 29.6437C19.9675 29.6437 20.6083 29.5586 21.138 29.3883C21.6725 29.2181 22.0863 28.9768 22.3796 28.6647C22.6728 28.3478 22.8833 27.9978 23.011 27.6147C23.1387 27.2269 23.2025 26.7847 23.2025 26.2881C23.2025 25.5739 23.0323 24.9803 22.6917 24.5074C22.3559 24.0344 21.8971 23.6939 21.3154 23.4858C20.7337 23.2729 20.0337 23.1665 19.2154 23.1665H15.7534ZM24.6427 23.1949V33.5882H30.9567L31.0206 32.0558H26.5653V28.9272H30.6517V27.4019H26.5653V24.7202H30.8645L30.9426 23.1949H24.6427ZM32.8226 23.1949V33.5882H36.008C37.8005 33.5882 39.2028 33.1366 40.215 32.2332C41.2271 31.3251 41.7332 30.0316 41.7332 28.3525C41.7332 27.487 41.5937 26.7255 41.3146 26.0681C41.0403 25.406 40.643 24.8668 40.1228 24.4506C39.6072 24.0297 38.99 23.7151 38.2711 23.507C37.5522 23.2989 36.7387 23.1949 35.8306 23.1949H32.8226Z" fill="#E6AD0F"/>
</svg>
