<svg width="56" height="56" viewBox="0 0 56 56" fill="none" xmlns="http://www.w3.org/2000/svg">
<path fill-rule="evenodd" clip-rule="evenodd" d="M3.7692 13C3.13195 13 2.61536 13.5166 2.61536 14.1538V19.9231C2.61536 20.5603 3.13513 21.0676 3.76515 21.1634C7.22433 21.6894 9.8681 24.55 9.8681 28C9.8681 31.45 7.22433 34.3106 3.76515 34.8366C3.13513 34.9324 2.61536 35.4397 2.61536 36.0769V41.8462C2.61536 42.4834 3.13195 43 3.7692 43H15.3077V40.5H16.4615V38H15.3077V33H16.4615V30.5H15.3077L15.3077 25.5H16.4615V23H15.3077V18H16.4615V15.5H15.3077V13H3.7692Z" fill="#EF7557"/>
<path fill-rule="evenodd" clip-rule="evenodd" d="M17.6154 43H52.2308C52.868 43 53.3846 42.4834 53.3846 41.8462V36.0769C53.3846 35.4397 52.8648 34.9324 52.2348 34.8366C48.7757 34.3106 46.1319 31.45 46.1319 28C46.1319 24.55 48.7757 21.6894 52.2348 21.1634C52.8648 21.0676 53.3846 20.5603 53.3846 19.9231V14.1538C53.3846 13.5166 52.868 13 52.2308 13H17.6154V15.5H16.4615V18H17.6154V23H16.4615V25.5H17.6154L17.6154 30.5H16.4615V33H17.6154V38H16.4615V40.5H17.6154V43ZM26.8462 23.6923C28.2906 23.6923 29.4616 22.5214 29.4616 21.0769C29.4616 19.6325 28.2906 18.4615 26.8462 18.4615C25.4018 18.4615 24.2308 19.6325 24.2308 21.0769C24.2308 22.5214 25.4018 23.6923 26.8462 23.6923ZM26.8462 25.6923C29.3952 25.6923 31.4616 23.6259 31.4616 21.0769C31.4616 18.5279 29.3952 16.4615 26.8462 16.4615C24.2972 16.4615 22.2308 18.5279 22.2308 21.0769C22.2308 23.6259 24.2972 25.6923 26.8462 25.6923ZM42.1539 34.9232C42.1539 36.3676 40.9829 37.5386 39.5385 37.5386C38.0941 37.5386 36.9231 36.3676 36.9231 34.9232C36.9231 33.4788 38.0941 32.3078 39.5385 32.3078C40.9829 32.3078 42.1539 33.4788 42.1539 34.9232ZM44.1539 34.9232C44.1539 37.4722 42.0875 39.5386 39.5385 39.5386C36.9895 39.5386 34.9231 37.4722 34.9231 34.9232C34.9231 32.3742 36.9895 30.3078 39.5385 30.3078C42.0875 30.3078 44.1539 32.3742 44.1539 34.9232ZM22.2308 37.6749L43.444 16.4617L44.8582 17.8759L23.645 39.0891L22.2308 37.6749Z" fill="#EA481F"/>
</svg>
