<svg width="75" height="75" viewBox="0 0 75 75" fill="none" xmlns="http://www.w3.org/2000/svg">
<path fill-rule="evenodd" clip-rule="evenodd" d="M5 7C5 5.89543 5.89543 5 7 5H68C69.1046 5 70 5.89543 70 7V16H5V7ZM5 18H70V68C70 69.1046 69.1046 70 68 70H7C5.89543 70 5 69.1046 5 68V18ZM43.4615 30.6462C43.4615 29.1847 44.6462 28 46.1076 28C47.5691 28 48.7538 29.1847 48.7538 30.6461V50.9333C48.7538 52.3947 47.5691 53.5794 46.1076 53.5794C44.6462 53.5794 43.4615 52.3947 43.4615 50.9333V30.6462ZM34.2 32.8513C30.2307 34.1743 27.5846 34.1743 27.5846 34.1743V47.4051C27.5846 47.4051 30.2307 47.4051 34.2 48.7282C38.1692 50.0512 40.8153 51.8153 40.8153 51.8153V29.7641C40.8153 29.7641 38.1692 31.5282 34.2 32.8513ZM20 34.1743C18.3431 34.1743 17 35.5175 17 37.1743V44.4051C17 46.0619 18.3431 47.4051 20 47.4051H21.9384C23.5953 47.4051 24.9384 46.0619 24.9384 44.4051V37.1743C24.9384 35.5175 23.5953 34.1743 21.9384 34.1743H20ZM20.5282 52.0512C20.5282 50.9467 21.4236 50.0512 22.5282 50.0512H22.9384C24.043 50.0512 24.9384 50.9467 24.9384 52.0512V57.7538C24.9384 58.8584 24.043 59.7538 22.9384 59.7538H22.5282C21.4236 59.7538 20.5282 58.8584 20.5282 57.7538V52.0512ZM55.8776 48.3583C56.4558 48.6921 56.6539 49.4314 56.3201 50.0095C55.9863 50.5877 55.247 50.7858 54.6689 50.452L51.8423 48.8201C51.2642 48.4863 51.0661 47.747 51.3999 47.1688C51.7337 46.5907 52.4729 46.3926 53.0511 46.7264L55.8776 48.3583ZM56.0963 39.8431C56.7639 39.8431 57.3051 40.3843 57.3051 41.0518C57.3051 41.7194 56.7639 42.2606 56.0963 42.2606H52.8325C52.1649 42.2606 51.6237 41.7194 51.6237 41.0518C51.6237 40.3843 52.1649 39.8431 52.8325 39.8431H56.0963ZM53.6805 31.5009C54.1526 31.0288 54.9179 31.0288 55.39 31.5009C55.862 31.9729 55.862 32.7383 55.39 33.2104L53.0821 35.5182C52.6101 35.9903 51.8447 35.9903 51.3726 35.5182C50.9006 35.0462 50.9006 34.2808 51.3726 33.8087L53.6805 31.5009Z" fill="white"/>
<circle cx="12.5" cy="10.5" r="2.5" fill="#F44336"/>
<circle cx="19.5" cy="10.5" r="2.5" fill="#FFEB3B"/>
<circle cx="26.5" cy="10.5" r="2.5" fill="#4CAF50"/>
</svg>
