<svg width="70" height="70" viewBox="0 0 70 70" fill="none" xmlns="http://www.w3.org/2000/svg">
<path fill-rule="evenodd" clip-rule="evenodd" d="M59.8605 16.4973L60.7034 2.27588L46.4819 3.11872L50.2003 6.83712L35 22.0375L26.1724 13.2099L8.51721 30.865L14.5862 36.934L26.1724 25.3478L35 34.1754L56.2693 12.9061L59.8605 16.4973Z" fill="white"/>
<path fill-rule="evenodd" clip-rule="evenodd" d="M63.5995 66C63.659 65.6838 63.6896 65.3607 63.6896 65.0344C63.6896 63.6509 63.14 62.3241 62.1618 61.3459C61.1835 60.3677 59.8568 59.8181 58.4733 59.8181H58.0299C57.1907 59.8147 56.3707 59.5661 55.6709 59.1026C54.9712 58.6392 54.4222 57.9813 54.0916 57.2099V57.0013C53.7444 56.2146 53.6409 55.342 53.7943 54.4959C53.9477 53.6498 54.351 52.8691 54.9523 52.2544L55.1088 52.098C55.5938 51.6135 55.9785 51.0382 56.241 50.405C56.5036 49.7717 56.6387 49.0929 56.6387 48.4074C56.6387 47.7219 56.5036 47.0431 56.241 46.4099C55.9785 45.7766 55.5938 45.2013 55.1088 44.7169C54.6243 44.2319 54.049 43.8471 53.4158 43.5846C52.7825 43.3221 52.1038 43.187 51.4183 43.187C50.7328 43.187 50.054 43.3221 49.4207 43.5846C48.7875 43.8471 48.2122 44.2319 47.7277 44.7169L47.5712 44.8734C46.9566 45.4747 46.1758 45.878 45.3298 46.0314C44.4837 46.1848 43.6111 46.0813 42.8244 45.7341C42.053 45.4035 41.3951 44.8545 40.9317 44.1547C40.4683 43.455 40.2196 42.635 40.2163 41.7958V41.561C40.2163 40.1776 39.6667 38.8508 38.6884 37.8725C37.7102 36.8943 36.3834 36.3447 35 36.3447C33.6165 36.3447 32.2897 36.8943 31.3115 37.8725C30.3332 38.8508 29.7837 40.1776 29.7837 41.561V42.0044C29.7803 42.8437 29.5316 43.6637 29.0682 44.3634C28.6048 45.0631 27.9469 45.6121 27.1755 45.9427H26.9669C26.1802 46.2899 25.3076 46.3935 24.4615 46.2401C23.6154 46.0867 22.8347 45.6833 22.22 45.082L22.0635 44.9255C21.5791 44.4405 21.0038 44.0558 20.3705 43.7933C19.7373 43.5308 19.0585 43.3957 18.373 43.3957C17.6875 43.3957 17.0087 43.5308 16.3755 43.7933C15.7422 44.0558 15.1669 44.4405 14.6825 44.9255C14.1975 45.41 13.8127 45.9853 13.5502 46.6185C13.2877 47.2518 13.1526 47.9306 13.1526 48.6161C13.1526 49.3016 13.2877 49.9804 13.5502 50.6136C13.8127 51.2469 14.1975 51.8222 14.6825 52.3066L14.839 52.4631C15.4402 53.0778 15.8436 53.8585 15.997 54.7046C16.1504 55.5506 16.0468 56.4233 15.6996 57.2099C15.4016 58.0204 14.8666 58.7224 14.1642 59.2248C13.4619 59.7271 12.6246 60.0065 11.7613 60.0267H11.5266C10.1432 60.0267 8.81637 60.5763 7.83812 61.5546C6.85988 62.5328 6.3103 63.8596 6.3103 65.243C6.3103 65.4979 6.32895 65.7508 6.3655 66H25.4349C25.4033 65.6824 25.387 65.3603 25.387 65.0344C25.387 59.7254 29.6909 55.4215 34.9999 55.4215C40.309 55.4215 44.6128 59.7254 44.6128 65.0344C44.6128 65.3603 44.5966 65.6824 44.5649 66H63.5995ZM40.9591 66C41.0097 65.6856 41.0359 65.3631 41.0359 65.0344C41.0359 61.7008 38.3335 58.9984 34.9999 58.9984C31.6663 58.9984 28.9639 61.7008 28.9639 65.0344C28.9639 65.3631 28.9902 65.6856 29.0408 66H40.9591Z" fill="white"/>
<line x1="4" y1="66" x2="66" y2="66" stroke="white" stroke-width="2" stroke-linecap="round" stroke-linejoin="round"/>
</svg>
